<svg width="118" height="49" viewBox="0 0 118 49" fill="none" xmlns="http://www.w3.org/2000/svg">
<path d="M16.5 49H2.76134C2.76134 49 0.917969 45.488 0.917969 38C0.917969 30.512 2.45397 23.984 5.52597 18.416C8.59797 12.784 12.982 8.43201 18.678 5.36001C24.374 2.22401 31.158 0.656006 39.03 0.656006C46.902 0.656006 53.654 2.22401 59.286 5.36001C64.982 8.43201 69.366 12.784 72.438 18.416C75.51 23.984 77.046 30.512 77.046 38C77.046 45.488 75.2026 49 75.2026 49H63.5H16.5ZM16.5 49H63.5C63.5 49 64.5 47.5 64.278 38C64.0559 28.5 62.07 22.896 57.654 18.224C53.238 13.488 47.03 11.12 39.03 11.12C31.03 11.12 24.79 13.488 20.31 18.224C15.894 22.896 13.686 29.488 13.686 38C13.686 46.512 16.5 49 16.5 49Z" fill="#4DA5FF"/>
<path d="M117.542 2.00001V49H104.87V5.84001L111.782 11.984L81.6382 17.264V7.18401L108.038 2.00001H117.542Z" fill="#4DA5FF"/>
</svg>
