<svg width="151" height="50" viewBox="0 0 151 50" fill="none" xmlns="http://www.w3.org/2000/svg">
<path d="M85.0574 26.768C85.4414 21.456 87.1374 16.848 90.1454 12.944C93.2174 9.04001 97.2814 6.03201 102.337 3.92001C107.393 1.74401 113.153 0.656006 119.617 0.656006C125.761 0.656006 131.137 1.61601 135.745 3.53601C140.417 5.45601 144.033 8.14401 146.593 11.6C149.217 15.056 150.529 19.056 150.529 23.6C150.529 27.12 149.665 30.384 147.937 33.392C146.273 36.4 143.489 39.472 139.585 42.608C135.745 45.68 136.593 45.2261 130.001 49.1301H109.501L116.353 46.16C121.729 42.896 125.953 40.08 129.025 37.712C132.161 35.28 134.401 33.008 135.745 30.896C137.089 28.784 137.761 26.544 137.761 24.176C137.761 21.68 137.089 19.44 135.745 17.456C134.401 15.472 132.353 13.904 129.601 12.752C126.913 11.6 123.457 11.024 119.233 11.024C114.433 11.024 110.497 11.728 107.425 13.136C104.353 14.544 102.049 16.464 100.513 18.896C99.0414 21.264 98.1454 23.888 97.8254 26.768H85.0574Z" fill="#4DA5FF"/>
<path d="M15.582 49.344H1.84337C1.84337 49.344 0 45.832 0 38.344C0 30.856 1.536 24.328 4.608 18.76C7.68 13.128 12.064 8.776 17.76 5.704C23.456 2.568 30.24 1 38.112 1C45.984 1 52.736 2.568 58.368 5.704C64.064 8.776 68.448 13.128 71.52 18.76C74.592 24.328 76.128 30.856 76.128 38.344C76.128 45.832 74.2846 49.344 74.2846 49.344H62.582H15.582ZM15.582 49.344H62.582C62.582 49.344 63.582 47.844 63.36 38.344C63.138 28.844 61.152 23.24 56.736 18.568C52.32 13.832 46.112 11.464 38.112 11.464C30.112 11.464 23.872 13.832 19.392 18.568C14.976 23.24 12.768 29.832 12.768 38.344C12.768 46.856 15.582 49.344 15.582 49.344Z" fill="#4DA5FF"/>
</svg>
