<svg width="154" height="52" viewBox="0 0 154 52" fill="none" xmlns="http://www.w3.org/2000/svg">
<path d="M87.4999 24.176C87.9479 19.76 89.5479 15.792 92.2999 12.272C95.1159 8.68801 99.0199 5.87201 104.012 3.82401C109.068 1.71201 115.084 0.656006 122.06 0.656006C128.268 0.656006 133.644 1.48801 138.188 3.15201C142.796 4.75201 146.348 7.02401 148.844 9.96801C151.34 12.848 152.588 16.272 152.588 20.24C152.588 23.568 151.596 26.576 149.612 29.264C147.692 31.888 144.748 33.968 140.78 35.504C136.812 37.04 131.852 37.808 125.9 37.808V35.984C131.788 35.728 136.844 36.272 141.068 37.616C145.292 38.896 148.524 40.88 150.764 43.568C153.068 46.192 153.501 49.1626 153.501 49.1626H140.78C140.78 49.1626 140.748 48.176 139.532 46.64C138.38 45.04 136.428 43.824 133.676 42.992C130.988 42.16 127.34 41.744 122.732 41.744H109.676V32.336H122.732C128.684 32.336 133.004 31.376 135.692 29.456C138.38 27.472 139.724 24.944 139.724 21.872C139.724 18.48 138.22 15.824 135.212 13.904C132.268 11.984 127.66 11.024 121.388 11.024C115.244 11.024 110.348 12.176 106.7 14.48C103.116 16.72 100.972 19.952 100.268 24.176H87.4999Z" fill="#4DA5FF"/>
<path d="M15.582 51.344H1.84337C1.84337 51.344 0 47.832 0 40.344C0 32.856 1.536 26.328 4.608 20.76C7.68 15.128 12.064 10.776 17.76 7.704C23.456 4.568 30.24 3 38.112 3C45.984 3 52.736 4.568 58.368 7.704C64.064 10.776 68.448 15.128 71.52 20.76C74.592 26.328 76.128 32.856 76.128 40.344C76.128 47.832 74.2846 51.344 74.2846 51.344H62.582H15.582ZM15.582 51.344H62.582C62.582 51.344 63.582 49.844 63.36 40.344C63.138 30.844 61.152 25.24 56.736 20.568C52.32 15.832 46.112 13.464 38.112 13.464C30.112 13.464 23.872 15.832 19.392 20.568C14.976 25.24 12.768 31.832 12.768 40.344C12.768 48.856 15.582 51.344 15.582 51.344Z" fill="#4DA5FF"/>
</svg>
