<svg width="157" height="49" viewBox="0 0 157 49" fill="none" xmlns="http://www.w3.org/2000/svg">
<path d="M143.317 0V48.5H130.645V5.28H135.829L97.1291 48.3L94.2611 46.656H156.469V48.5H84.2771V47.712L127.189 0H143.317Z" fill="#4DA5FF"/>
<path d="M15.582 48.344H1.84337C1.84337 48.344 0 44.832 0 37.344C0 29.856 1.536 23.328 4.608 17.76C7.68 12.128 12.064 7.776 17.76 4.704C23.456 1.568 30.24 0 38.112 0C45.984 0 52.736 1.568 58.368 4.704C64.064 7.776 68.448 12.128 71.52 17.76C74.592 23.328 76.128 29.856 76.128 37.344C76.128 44.832 74.2846 48.344 74.2846 48.344H62.582H15.582ZM15.582 48.344H62.582C62.582 48.344 63.582 46.844 63.36 37.344C63.138 27.844 61.152 22.24 56.736 17.568C52.32 12.832 46.112 10.464 38.112 10.464C30.112 10.464 23.872 12.832 19.392 17.568C14.976 22.24 12.768 28.832 12.768 37.344C12.768 45.856 15.582 48.344 15.582 48.344Z" fill="#4DA5FF"/>
</svg>
