<svg width="157" height="81" viewBox="0 0 157 81" fill="none" xmlns="http://www.w3.org/2000/svg">
<path d="M155.041 14.0716C159.291 26.993 159.191 49.7496 85.7914 74.1469C39.8353 86.4074 6.09755 78.2254 1.60187 66.8297C-3.85468 54.4164 7.207 25.0868 67.9059 7.25984C113.862 -5.00066 143.774 0.198953 155.041 14.0716Z" fill="#0A84FF"/>
<path d="M8.07784 35.881C8.07784 35.881 8.66835 34.6937 9.21035 34.0516C9.73884 33.4255 10.7784 32.6577 10.7784 32.6577L26.5464 28.2148C26.5464 28.2148 29.1384 27.5961 30.8151 27.6921C32.5286 27.7902 33.4865 28.1097 35.0838 28.7375C36.1458 29.1549 37.6973 30.0442 37.6973 30.0442L42.0531 34.2254C42.0531 34.2254 43.8338 32.8996 44.6665 32.3964C45.3827 31.9636 45.8089 31.7556 46.5831 31.4381C47.4093 31.0993 47.8954 30.9607 48.761 30.7412C49.9971 30.4277 50.714 30.3302 51.9843 30.2185C53.5093 30.0844 54.4237 29.83 55.9045 30.2185C57.8028 30.7165 58.8146 31.5109 60.0861 33.0059C61.1507 34.2576 60.9516 34.1312 61.3928 34.9223C61.6152 35.3209 61.496 35.7878 61.9155 35.9677C62.2297 36.1025 63.2223 35.8806 63.2223 35.8806C63.2223 35.8806 64.0855 35.692 64.4419 35.1837C64.564 35.0094 64.4419 34.4867 64.4419 34.4867L63.8321 28.1274L68.1007 51.4742C68.1007 51.4742 67.1055 55.0946 66.6198 57.0496C66.2511 58.5335 65.704 60.0225 65.0517 61.4054C64.2054 63.1997 63.612 64.305 62.1769 65.6747C60.7016 67.0826 59.4735 67.4095 57.5597 68.1139C55.662 68.8125 52.507 69.2464 52.507 69.2464C52.507 69.2464 49.5434 69.2461 47.7156 68.8109C45.9763 68.3967 43.4469 67.1557 43.4469 67.1557C43.4469 67.1557 42.9515 67.9265 42.5758 68.3753C42.1434 68.8917 41.8461 69.1327 41.3561 69.5949C40.7951 70.1242 39.8752 70.9016 39.8752 70.9016C39.8752 70.9016 38.7976 71.755 38.0457 72.2084C36.7145 73.0111 35.8514 73.255 34.3869 73.7765C33.1497 74.2169 31.1636 74.7347 31.1636 74.7347L20.187 77.8709C20.187 77.8709 18.9602 78.1604 18.1833 78.0452C17.3834 77.9265 16.2667 77.2611 16.2667 77.2611L12.2594 74.5605C12.2594 74.5605 11.3353 73.8072 10.9527 73.1667C10.5665 72.5201 10.3429 71.3372 10.3429 71.3372L10.1686 68.5495L8.07784 35.881Z" fill="black"/>
<path d="M64.0941 59.1401L64.791 36.8384L63.8321 28.1274L63.6585 23.2488C63.6585 23.2488 63.6321 21.9799 63.9198 21.2451C64.2472 20.4088 64.5964 19.9563 65.3137 19.4157C65.7148 19.1134 65.9857 19.0065 66.4462 18.8059C66.9393 18.5911 67.7529 18.3703 67.7529 18.3703L86.3957 12.9691C86.3957 12.9691 87.2895 12.7015 87.8767 12.7078C88.4305 12.7137 89.2706 12.9691 89.2706 12.9691L92.0583 14.6243C92.0583 14.6243 93.705 15.4446 94.4976 16.2795C94.8817 16.6842 95.1306 16.9698 95.3687 17.412C95.6069 17.8543 95.7404 18.1023 95.9785 18.5445C95.9785 18.5445 97.6661 17.9252 98.7663 17.5863C99.8784 17.2437 100.493 16.9895 101.641 16.8022C102.751 16.6212 103.393 16.5689 104.516 16.628C105.583 16.6841 107.217 17.0636 107.217 17.0636H107.565L109.22 15.4084L110.963 14.6243C110.963 14.6243 114.77 13.2221 117.322 12.882C118.033 12.7872 118.44 12.6121 119.151 12.7078C119.834 12.7996 120.174 13.0458 120.807 13.3176C122.137 13.8886 124.03 15.147 124.03 15.147L124.378 15.0599C124.378 15.0599 124.396 14.471 124.466 14.1016C124.578 13.4988 124.693 13.1584 124.988 12.6207C125.302 12.0477 125.589 11.7926 126.034 11.3139C126.476 10.8378 126.708 10.5355 127.253 10.1814C128.174 9.58305 129.954 9.39736 129.954 9.39736L134.919 8.00351C134.919 8.00351 135.658 7.83377 136.139 7.82928C136.654 7.82446 136.953 7.85324 137.446 8.00351C137.839 8.12349 138.404 8.43909 138.404 8.43909L142.411 11.1397C142.411 11.1397 143.087 11.6296 143.457 12.0108C143.675 12.2359 143.81 12.3564 143.979 12.6207C144.252 13.0467 144.326 13.3425 144.415 13.8403C144.511 14.376 144.473 14.6929 144.415 15.2341C144.34 15.9315 143.979 16.9765 143.979 16.9765L142.847 21.7678C142.847 21.7678 138.317 42.5886 135.355 49.4707C132.393 56.3529 134.214 52.5242 133.09 54.2621C132.028 55.9044 131.314 56.7793 129.867 58.0952C128.456 59.3778 126.731 60.5344 125.859 60.8829C124.988 61.2314 124.438 61.4478 123.507 61.7541C122.832 61.9762 122.471 62.202 121.765 62.2768C120.913 62.3669 120.391 62.3099 119.587 62.0154C118.957 61.7847 118.681 61.4908 118.106 61.1443C117.282 60.6469 116.827 60.3557 116.015 59.8375C115.331 59.4008 114.864 59.2609 114.273 58.705C113.974 58.4244 113.818 58.2515 113.576 57.921C113.342 57.6009 113.217 57.4114 113.053 57.0498C112.85 56.5983 112.806 56.3151 112.705 55.8302C112.531 54.9949 112.531 53.6523 112.531 53.6523C112.531 53.6523 111.695 54.2568 111.137 54.6106C110.314 55.1327 109.83 55.393 108.959 55.8302C108.06 56.281 106.607 56.8756 106.607 56.8756C106.607 56.8756 105.084 57.3706 104.08 57.5725C102.972 57.7956 102.336 57.8979 101.206 57.921C100.011 57.9454 99.3332 57.8681 98.1564 57.6596C96.9048 57.4379 96.196 57.2716 95.0202 56.7885C94.1336 56.4241 92.8423 55.656 92.8423 55.656C92.8423 55.656 92.381 57.2885 91.7969 58.1823C91.3225 58.9084 91.0033 59.3084 90.316 59.8375C89.7609 60.2649 88.7479 60.7087 88.7479 60.7087L83.4338 62.1025L76.8995 63.583C76.8995 63.583 74.5473 63.6701 73.4148 62.7119C72.4566 61.901 72.3694 59.837 72.3694 59.837C72.3694 59.837 72.1912 54.3696 71.9339 54.1748C71.6592 53.9669 71.4983 54.0006 71.4983 54.0006L69.1461 54.3491C69.1461 54.3491 67.7523 54.3491 67.4038 54.7846C67.1768 55.0685 66.6198 57.2239 66.6198 57.2239L66.1849 57.572L64.0941 59.1401Z" fill="black"/>
<path d="M11.8242 36.403L19.4468 34.2687L21.3198 46.3343C21.3198 46.3343 21.2475 46.8208 21.3198 47.1183C21.3452 47.2228 21.3536 47.2862 21.4069 47.3796C21.4785 47.505 21.5369 47.5813 21.6683 47.641C21.8231 47.7114 21.9346 47.6576 22.1039 47.641C22.2765 47.6241 22.5394 47.5539 22.5394 47.5539L25.4143 46.6827C25.4143 46.6827 26.3174 46.3457 26.8081 45.9858C27.4301 45.5296 27.758 45.1886 28.1149 44.5048C28.3787 43.9992 28.4823 43.6772 28.5504 43.111C28.5952 42.7394 28.6148 42.5213 28.5504 42.1527C28.4949 41.8347 28.4344 41.6568 28.2891 41.3686C28.0714 40.9369 27.8903 40.7025 27.5051 40.4104C27.202 40.1805 26.9938 40.0978 26.6339 39.9748C26.3371 39.8733 25.8499 39.8006 25.8499 39.8006L24.8916 39.9748L23.4977 40.3232L21.6683 40.8459C21.6683 40.8459 21.4423 40.8647 21.3198 40.9331C21.1056 41.0526 20.9714 41.4558 20.9714 41.4558L21.3198 46.3343L19.4468 34.2687L27.0695 32.1343C27.0695 32.1343 28.1303 31.9675 28.8118 31.873C29.6269 31.76 30.0861 31.7137 30.9026 31.6117C30.9026 31.6117 31.9757 31.7765 32.6449 31.9601C33.4129 32.1709 33.8964 32.2189 34.5614 32.657C35.2247 33.094 35.5028 33.4853 35.9553 34.138C36.3887 34.7632 36.5741 35.1627 36.8265 35.8803C37.2032 36.9515 37.2923 37.6201 37.262 38.7552C37.2465 39.3373 37.1605 39.6583 37.0878 40.2361C36.9935 40.9856 37.0267 41.4243 36.8265 42.1527C36.6204 42.9022 36.4076 43.296 36.0424 43.9821C35.7408 44.5488 35.5517 44.859 35.1713 45.376C34.771 45.9199 34.5219 46.2109 34.0388 46.6827C33.6243 47.0875 32.9062 47.641 32.9062 47.641L32.9934 47.7281C32.9934 47.7281 33.8466 47.8094 34.3872 47.9023C34.8673 47.9849 35.1631 47.9627 35.6068 48.1637C36.0283 48.3546 36.2318 48.5397 36.5651 48.8606C36.879 49.1628 37.0313 49.3622 37.262 49.7318C37.5934 50.2623 37.6488 50.6284 37.8719 51.2127C38.0906 51.7857 38.2293 52.1031 38.3946 52.6937C38.5815 53.362 38.6587 53.7473 38.743 54.436C38.8093 54.9774 38.8137 55.2847 38.8301 55.8299C38.8455 56.34 38.858 56.6271 38.8301 57.1366C38.7983 57.7181 38.7666 58.0459 38.6559 58.6176C38.5004 59.4206 38.3568 59.8647 38.0461 60.6213C37.7397 61.3673 37.5137 61.7658 37.0878 62.4507C36.6889 63.0922 36.4689 63.4649 35.9553 64.0188C35.4962 64.514 35.2156 64.7846 34.6486 65.1513C34.2014 65.4405 33.4289 65.7611 33.4289 65.7611L29.0296 67.0243L28.4633 60.1857C28.4633 60.1857 29.2604 60.028 29.683 59.7501C30.0448 59.5122 30.2181 59.3204 30.467 58.9661C30.7649 58.542 30.8623 58.2487 30.9897 57.7464C31.1489 57.119 31.1751 56.731 31.0768 56.0912C31.0065 55.6339 30.9235 55.3783 30.7283 54.9587C30.5412 54.5566 30.4107 54.3342 30.1185 54.0005C29.8001 53.6366 29.1603 53.2164 29.1603 53.2164C29.1603 53.2164 28.5869 53.0032 28.202 52.9551C27.8644 52.9129 27.6676 52.9067 27.3308 52.9551C26.9792 53.0055 26.4597 53.2164 26.4597 53.2164L25.0658 53.5649L23.4106 54.0005C23.4106 54.0005 22.928 54.0881 22.6266 54.1747C22.4198 54.2341 22.293 54.2463 22.1039 54.3489C21.9124 54.4528 21.7745 54.5072 21.6683 54.6974C21.6158 54.7913 21.6023 54.8532 21.5812 54.9587C21.5478 55.1255 21.5812 55.3943 21.5812 55.3943L22.0167 60.8826C22.0167 60.8826 22.035 61.159 22.1039 61.3182C22.1904 61.5181 22.2609 61.6498 22.4523 61.7538C22.5756 61.8207 22.6611 61.8281 22.8008 61.8409C23.0808 61.8665 23.5032 61.683 23.5032 61.683L24.456 61.4053L28.4633 60.1857L29.0296 67.0243L24.6302 68.2875L15.1346 70.8138C15.1346 70.8138 14.9264 70.901 14.7861 70.901C14.6458 70.901 14.5493 70.8987 14.4377 70.8138C14.2918 70.703 14.2634 70.3783 14.2634 70.3783L11.8242 36.403Z" fill="white"/>
<path d="M42.7487 38.407C43.7569 37.172 44.5106 36.6016 45.8848 35.7935C47.6469 34.7574 48.8286 34.4389 50.8505 34.1383C52.9379 33.8279 54.4183 33.2673 56.2516 34.3126C57.3595 34.9442 57.8138 35.6006 58.5167 36.6647C59.3594 37.9406 59.9105 40.3236 59.9105 40.3236L60.6946 46.9444L54.6836 48.6867L53.2026 44.0695C53.2026 44.0695 53.3177 43.9713 53.3768 43.8953C53.4702 43.7752 53.5511 43.7211 53.5511 43.5468C53.5511 43.3726 53.5194 43.0658 53.4639 42.7628C53.4134 42.4868 53.3859 42.3294 53.2897 42.0659C53.1854 41.78 53.1202 41.615 52.9412 41.3689C52.7714 41.1355 52.6559 41.0106 52.4185 40.8463C52.2309 40.7163 52.1094 40.6654 51.8958 40.5849C51.6024 40.4742 51.4254 40.4152 51.1118 40.4107C50.8713 40.4072 50.7369 40.4459 50.502 40.4978C50.0393 40.6001 49.7789 40.6949 49.3695 40.9334C48.993 41.1527 48.8069 41.3227 48.4983 41.6303C48.2762 41.8517 48.1654 41.9904 47.9756 42.2401C47.7072 42.5933 47.5486 42.7942 47.3658 43.1984C47.2328 43.4924 47.188 43.6707 47.1045 43.9824C47.0147 44.3176 46.9623 44.5081 46.9302 44.8536C46.902 45.1585 46.9302 45.6376 46.9302 45.6376C46.9302 45.6376 46.9717 45.7095 47.0174 45.7248C47.0496 45.7355 47.1045 45.7248 47.1045 45.7248L50.1535 44.9407L53.2026 44.0695L54.6836 48.6867L48.6726 50.429C48.6726 50.429 48.1749 50.663 47.8885 50.8646C47.632 51.0452 47.4326 51.114 47.2787 51.3873C47.0943 51.7147 47.1423 51.973 47.1916 52.3456C47.2339 52.6655 47.3331 52.8299 47.4529 53.1296C47.6225 53.5534 47.7037 53.8084 47.9756 54.175C48.205 54.4841 48.3744 54.6286 48.6726 54.8719C48.9577 55.1046 49.1165 55.2541 49.4566 55.3946C49.8702 55.5655 50.1424 55.5431 50.5891 55.5689C50.8608 55.5845 51.0166 55.6072 51.286 55.5689C51.6803 55.5128 51.8835 55.3888 52.2443 55.2204C52.7149 55.0007 52.9707 54.8472 53.3768 54.5235C53.753 54.2236 53.9411 54.0229 54.248 53.6523C54.5128 53.3325 54.6572 53.1448 54.8578 52.7811C55.0197 52.4878 55.2063 51.9971 55.2063 51.9971L59.9976 50.6904C59.9976 50.6904 60.1118 50.7308 60.1719 50.7775C60.2098 50.807 60.259 50.8646 60.259 50.8646C60.259 50.8646 60.2034 52.0918 60.0848 52.8683C59.9476 53.7656 59.8366 54.268 59.5621 55.1333C59.3862 55.6874 59.2648 55.9913 59.0394 56.5271C58.8209 57.0462 58.7241 57.3539 58.4295 57.8339C57.8256 58.818 57.2588 59.2269 56.3388 59.9247C55.4646 60.5876 54.9116 60.8949 53.8995 61.3185C52.8261 61.7679 51.0247 62.1026 51.0247 62.1026C51.0247 62.1026 49.1704 62.3348 47.9756 62.3639C47.4995 62.3755 47.2259 62.4417 46.756 62.3639C46.0199 62.242 45.6619 61.9493 45.0137 61.5799C44.4398 61.2528 44.1194 61.0538 43.6198 60.6216C43.1283 60.1963 42.9205 59.8866 42.4873 59.402C42.2463 59.1323 42.089 58.9984 41.8775 58.705C41.5837 58.2976 41.4789 58.0283 41.2677 57.5725C40.9194 56.8208 40.5708 55.5689 40.5708 55.5689L40.1352 51.2131L39.961 46.4217C39.961 46.4217 40.203 43.8107 40.745 42.2401C41.296 40.6434 41.6805 39.7155 42.7487 38.407Z" fill="white"/>
<path d="M67.3999 22.2918C67.3999 22.2918 67.4874 22.1172 67.5741 22.0305C67.6608 21.9437 67.7248 21.9091 67.8354 21.8562C68.0829 21.7379 68.5324 21.7691 68.5324 21.7691L72.7139 20.7237L77.8973 19.3299L83.1025 17.9796L85.8684 17.152L87.5237 16.6293C87.5237 16.6293 87.8539 16.5613 88.0463 16.6293C88.1181 16.6546 88.158 16.6731 88.2206 16.7164C88.2997 16.7712 88.3369 16.8137 88.3948 16.8906C88.5438 17.0885 88.569 17.5004 88.569 17.5004L88.8304 20.5059L89.1788 23.7728C89.1788 23.7728 89.2515 23.9817 89.266 24.1212C89.2765 24.2228 89.3272 24.3009 89.266 24.3826C89.2203 24.4434 89.1617 24.4397 89.0917 24.4697C88.9929 24.5121 88.8304 24.5568 88.8304 24.5568L86.7396 24.9924C86.7396 24.9924 85.0753 25.1579 84.1261 25.6022C83.8089 25.7507 83.5871 25.7875 83.3421 26.0378C82.9658 26.4222 82.9065 27.3445 82.9065 27.3445L83.255 30.7421L84.039 40.3248L85.0844 51.9984C85.0844 51.9984 85.1782 52.7284 84.9102 53.0437C84.7326 53.2528 84.3004 53.3922 84.3004 53.3922L78.8992 54.9603C78.8992 54.9603 78.3287 55.2279 77.9409 55.2216C77.734 55.2183 77.5957 55.2408 77.4182 55.1345C77.1571 54.9782 77.0697 54.4376 77.0697 54.4376L76.9826 53.3051L76.6341 48.0781L75.6759 37.45L75.3274 32.0488L75.0661 29.8709C75.0661 29.8709 75.0792 28.6884 74.5434 28.3899C74.2151 28.2071 73.5851 28.3028 73.5851 28.3028L68.271 29.8709C68.271 29.8709 68.1559 29.9047 68.0968 29.8709C68.0307 29.8332 68.0097 29.6967 68.0097 29.6967L67.6612 24.1212L67.3999 22.2918Z" fill="white"/>
<path d="M111.459 42.5742C109.7 46.0832 108.696 47.3728 105.073 48.9214C99.207 51.4286 92.5464 48.8861 90.7399 42.7205C88.7964 36.0871 90.2924 27.9458 95.826 24.0949C98.5657 22.1882 102.985 21.2569 106.294 22.2197C109.432 23.1326 111.343 25.4189 112.479 28.3541C114.182 32.7511 113.375 38.2952 111.459 42.5742ZM103.007 30.1658C102.663 29.6455 102.352 29.0995 101.964 28.6145C101.725 28.3166 101.37 28.1122 101.067 27.8658C100.861 28.2119 100.563 28.5342 100.466 28.9086C100.161 30.0904 99.9642 31.3004 99.6509 32.4797C99.567 32.7956 99.2723 33.1502 98.9788 33.2991C97.9577 33.817 96.8734 34.2116 95.8588 34.7404C95.4838 34.9359 95.0674 35.3396 94.9921 35.7131C94.947 35.9371 95.4816 36.3612 95.8319 36.5639C96.6021 37.0095 97.4207 37.3716 98.2195 37.768C98.577 37.9453 98.7525 38.1435 98.6664 38.6257C98.4201 40.0062 98.2507 41.4013 98.0891 42.795C98.0596 43.0497 98.1392 43.487 98.2925 43.5531C98.5256 43.6537 98.8775 43.5363 99.1585 43.4472C99.3177 43.3967 99.4422 43.224 99.5719 43.0957C100.467 42.2105 101.387 41.3484 102.238 40.423C102.603 40.0273 102.924 39.9891 103.391 40.1407C104.306 40.4377 105.225 40.7372 106.164 40.9377C106.539 41.0178 107.15 40.9753 107.327 40.7418C107.523 40.4825 107.452 39.9016 107.313 39.5303C106.91 38.4599 106.429 37.4179 105.948 36.3788C105.764 35.9813 105.78 35.6892 106.049 35.3163C106.866 34.1858 107.661 33.0357 108.393 31.8495C108.571 31.5612 108.477 31.1051 108.508 30.7261C108.166 30.7184 107.81 30.6444 107.486 30.717C106.848 30.8601 106.237 31.1223 105.6 31.2679C103.998 31.6336 103.994 31.6185 103.007 30.1658Z" fill="white"/>
<path d="M111.566 18.0227L118.623 16.019C118.623 16.019 118.845 15.9685 118.971 16.019C119.105 16.0726 119.32 16.2803 119.32 16.2803L120.017 17.6742L121.323 20.8975C121.323 20.8975 123.268 25.9645 124.372 29.2606C124.441 29.4646 124.634 29.7833 124.634 29.7833C124.634 29.7833 124.698 29.9322 124.895 29.9576C125.108 29.985 125.263 29.9331 125.418 29.7833C125.596 29.6109 125.576 29.3335 125.592 29.0864C125.608 28.8463 125.679 28.3024 125.679 28.3024L128.293 14.1896L128.38 13.754L128.728 13.2313L129.164 13.0571L135.697 11.4019L136.307 11.3147L136.656 11.4019L136.917 11.7503L136.83 12.0988L135.349 19.2423L128.728 44.3317C128.728 44.3317 127.909 46.7649 127.073 48.1648C126.021 49.9263 125.239 50.8432 123.675 52.1721C122.496 53.1745 121.787 53.7402 120.365 54.35C119.076 54.9029 116.88 55.2212 116.88 55.2212C116.88 55.2212 116.635 55.0353 116.532 54.8727C116.399 54.6635 116.358 54.2629 116.358 54.2629L116.096 49.4715C116.096 49.4715 116.225 49.1345 116.358 48.9488C116.498 48.7531 116.793 48.5133 116.793 48.5133C116.793 48.5133 119.154 47.672 119.494 47.4679C119.834 47.2637 120.025 47.1493 120.365 46.9452C120.365 46.9452 121.311 46.1204 121.759 45.4642C122.145 44.8985 122.382 44.5617 122.543 43.8961C122.711 43.2016 122.543 42.0667 122.543 42.0667C122.543 42.0667 122.577 41.2569 122.456 40.7599C122.25 39.9152 121.323 38.8434 121.323 38.8434L114.528 25.9502L110.957 19.5908C110.957 19.5908 110.744 19.118 110.782 18.8067C110.814 18.5496 110.846 18.3643 111.044 18.1969C111.208 18.0579 111.566 18.0227 111.566 18.0227Z" fill="white"/>
</svg>
